<?xml version="1.0" encoding="UTF-8" standalone="yes"?>
<svg version="1.1" id="Layer_1" xmlns:x="&amp;ns_extend;" xmlns:i="&amp;ns_ai;" xmlns:graph="&amp;ns_graphs;" xmlns="http://www.w3.org/2000/svg" xmlns:xlink="http://www.w3.org/1999/xlink" x="0px" y="0px" viewBox="0 0 315 306.45" style="enable-background:new 0 0 315 306.45;" xml:space="preserve">
      <style type="text/css">.st0{fill:#00F9C9;}	.st1{fill:#00F7F0;}	.st2{fill:#00E3F4;}	.st3{fill:#00FC9B;}	.st4{fill:#00B3F2;}</style>
    <metadata>
              <sfw>
                      <slices/>
            <sliceSourceBounds bottomLeftOrigin="true" height="306.45" width="315" x="-212.12" y="40.54"/>
                  </sfw>
          </metadata>
    <g id="color_index_3" fill="#00f9c9">
              <rect x="116.85" y="36.87" width="30.49" height="30.49"/>
        <rect x="153.72" y="36.87" width="30.49" height="30.49"/>
        <rect x="79.98" y="36.87" width="30.49" height="30.49"/>
        <rect x="84.31" y="202.03" width="30.49" height="30.49"/>
        <rect x="190.58" y="36.87" width="30.49" height="30.49"/>
        <rect x="192.38" y="171.98" transform="matrix(0.866 -0.5 0.5 0.866 -65.7939 128.8896)" width="30.49" height="30.49"/>
        <rect x="262.07" y="261.96" transform="matrix(0.6143 -0.7891 0.7891 0.6143 -111.7733 325.7527)" width="30.49" height="30.49"/>
          </g>
    <g id="color_index_2" fill="#00f7f0">
              <rect x="116.85" y="73.73" width="30.49" height="30.49"/>
        <rect x="79.98" y="73.73" width="30.49" height="30.49"/>
        <rect x="43.12" y="73.73" width="30.49" height="30.49"/>
        <rect x="18.98" y="171.98" transform="matrix(0.9012 -0.4334 0.4334 0.9012 -77.7624 33.3319)" width="30.49" height="30.49"/>
        <rect x="153.72" y="73.73" width="30.49" height="30.49"/>
        <rect x="190.58" y="73.73" width="30.49" height="30.49"/>
        <rect x="227.45" y="73.73" width="30.49" height="30.49"/>
        <rect x="176.23" y="131.15" transform="matrix(0.6143 -0.7891 0.7891 0.6143 -41.662 207.551)" width="30.49" height="30.49"/>
        <rect x="278.53" y="165.56" transform="matrix(0.5714 -0.8207 0.8207 0.5714 -22.4708 318.5888)" width="30.49" height="30.49"/>
          </g>
    <g id="color_index_1" fill="#00e3f4">
              <rect x="79.98" y="110.6" width="30.49" height="30.49"/>
        <rect x="43.12" y="110.6" width="30.49" height="30.49"/>
        <rect x="227.45" y="110.6" width="30.49" height="30.49"/>
        <rect x="235.92" y="150.59" transform="matrix(0.9434 -0.3317 0.3317 0.9434 -40.7885 92.7091)" width="30.49" height="30.49"/>
        <rect x="134.3" y="114.33" transform="matrix(0.4587 -0.8886 0.8886 0.4587 -34.1828 203.0311)" width="30.49" height="30.49"/>
        <rect x="66.1" y="150.42" transform="matrix(0.7071 -0.7071 0.7071 0.7071 -93.317 106.0396)" width="30.49" height="30.49"/>
        <rect x="235.92" y="206.56" transform="matrix(0.7883 -0.6153 0.6153 0.7883 -83.3048 201.5117)" width="30.49" height="30.49"/>
          </g>
    <g id="color_index_4" fill="#00fc9b">
              <rect x="116.85" width="30.49" height="30.49"/>
        <rect x="153.72" width="30.49" height="30.49"/>
        <rect x="110.54" y="154.34" transform="matrix(0.7071 -0.7071 0.7071 0.7071 -83.0747 138.6104)" width="30.49" height="30.49"/>
        <rect x="6.31" y="235.95" transform="matrix(0.7071 -0.7071 0.7071 0.7071 -171.3086 88.8179)" width="30.49" height="30.49"/>
        <rect x="186.39" y="214.4" transform="matrix(0.9879 -0.1554 0.1554 0.9879 -33.228 34.1134)" width="30.49" height="30.49"/>
          </g>
    <g id="color_index_0" fill="#00b3f2">
              <path d="M159.27,306.45h-17.47V259l-35.89,16.62l44.62-101.46l44.62,101.46L159.27,259V306.45z M145.62,302.62h9.82&#x9;&#x9;v-49.61l32.13,14.88l-37.04-84.22l-37.04,84.22l32.13-14.88V302.62z"/>
          </g>
  </svg>